<mxfile host="app.diagrams.net" modified="2020-12-29T09:55:42.778Z" agent="5.0 (Windows NT 10.0; Win64; x64) AppleWebKit/537.36 (KHTML, like Gecko) Chrome/87.0.4280.88 Safari/537.36" etag="2KFQnTbsLDdkfoVDGwZH" version="13.8.9-1" type="github">
  <diagram name="Page-1" id="ad52d381-51e7-2e0d-a935-2d0ddd2fd229">
    <mxGraphModel dx="992" dy="598" grid="1" gridSize="10" guides="1" tooltips="1" connect="1" arrows="1" fold="1" page="1" pageScale="1" pageWidth="1100" pageHeight="850" background="#F4F1DE" math="0" shadow="0">
      <root>
        <mxCell id="0" />
        <mxCell id="1" parent="0" />
        <mxCell id="2c924340bb9dbf6c-2" value="&lt;font style=&quot;font-size: 25px;&quot;&gt;&lt;b style=&quot;font-size: 25px;&quot;&gt;&lt;span style=&quot;font-size: 25px;&quot;&gt;DevOps&lt;/span&gt;&lt;/b&gt;&lt;/font&gt;" style="ellipse;whiteSpace=wrap;html=1;rounded=1;shadow=1;comic=0;labelBackgroundColor=none;strokeWidth=2;fontFamily=Cabin Sketch;fontSize=25;align=center;sketch=1;fontSource=https%3A%2F%2Ffonts.googleapis.com%2Fcss%3Ffamily%3DCabin%2BSketch;fontStyle=0;fillColor=#F2CC8F;strokeColor=#E07A5F;fontColor=#393C56;" parent="1" vertex="1">
          <mxGeometry x="170" y="165" width="120" height="80" as="geometry" />
        </mxCell>
        <mxCell id="2c924340bb9dbf6c-3" value="&lt;span style=&quot;font-size: 25px;&quot;&gt;&lt;font style=&quot;font-size: 25px;&quot;&gt;&lt;span style=&quot;font-size: 25px;&quot;&gt;Front-End&lt;/span&gt;&lt;/font&gt;&lt;/span&gt;" style="ellipse;whiteSpace=wrap;html=1;rounded=1;shadow=1;comic=0;labelBackgroundColor=none;strokeWidth=2;fontFamily=Cabin Sketch;fontSize=25;align=center;fontStyle=1;sketch=1;fontSource=https%3A%2F%2Ffonts.googleapis.com%2Fcss%3Ffamily%3DCabin%2BSketch;strokeColor=#E07A5F;fillColor=#F2CC8F;fontColor=#393C56;" parent="1" vertex="1">
          <mxGeometry x="540" y="185" width="120" height="80" as="geometry" />
        </mxCell>
        <mxCell id="2c924340bb9dbf6c-4" value="&lt;font color=&quot;#333333&quot; style=&quot;font-size: 32px;&quot;&gt;WEB DEVELOPMENT&lt;/font&gt;" style="ellipse;rounded=1;shadow=1;comic=0;labelBackgroundColor=none;strokeWidth=2;fontFamily=Cabin Sketch;fontSize=32;align=center;strokeColor=#E07A5F;labelBorderColor=none;whiteSpace=wrap;html=1;fontStyle=1;sketch=1;fontSource=https%3A%2F%2Ffonts.googleapis.com%2Fcss%3Ffamily%3DCabin%2BSketch;fontColor=#393C56;fillColor=#F2CC8F;" parent="1" vertex="1">
          <mxGeometry x="340" y="295" width="210" height="160" as="geometry" />
        </mxCell>
        <mxCell id="2c924340bb9dbf6c-5" value="&lt;font style=&quot;font-size: 25px;&quot;&gt;&lt;b style=&quot;font-size: 25px;&quot;&gt;&lt;span style=&quot;font-size: 25px;&quot;&gt;Back-end&lt;/span&gt;&lt;/b&gt;&lt;/font&gt;" style="ellipse;whiteSpace=wrap;html=1;rounded=1;shadow=1;comic=0;labelBackgroundColor=none;strokeWidth=2;fontFamily=Cabin Sketch;fontSize=25;align=center;sketch=1;fontSource=https%3A%2F%2Ffonts.googleapis.com%2Fcss%3Ffamily%3DCabin%2BSketch;fontStyle=0;strokeColor=#E07A5F;fillColor=#F2CC8F;fontColor=#393C56;" parent="1" vertex="1">
          <mxGeometry x="590" y="415" width="120" height="95" as="geometry" />
        </mxCell>
        <mxCell id="PwfOH68YG07IcWF_8wBd-2" value="&lt;font style=&quot;font-size: 25px;&quot;&gt;&lt;b style=&quot;font-size: 25px;&quot;&gt;&lt;span style=&quot;font-size: 25px;&quot;&gt;Database&lt;/span&gt;&lt;/b&gt;&lt;/font&gt;" style="ellipse;whiteSpace=wrap;html=1;rounded=1;shadow=1;comic=0;labelBackgroundColor=none;strokeWidth=2;fontFamily=Cabin Sketch;fontSize=25;align=center;sketch=1;fontSource=https%3A%2F%2Ffonts.googleapis.com%2Fcss%3Ffamily%3DCabin%2BSketch;fontStyle=0;fillColor=#F2CC8F;strokeColor=#E07A5F;fontColor=#393C56;" vertex="1" parent="1">
          <mxGeometry x="150" y="440" width="120" height="80" as="geometry" />
        </mxCell>
        <mxCell id="PwfOH68YG07IcWF_8wBd-3" value="" style="endArrow=classic;html=1;exitX=0.5;exitY=0;exitDx=0;exitDy=0;sketch=1;shadow=0;strokeColor=#E07A5F;fontColor=#393C56;labelBackgroundColor=#F4F1DE;" edge="1" parent="1" source="2c924340bb9dbf6c-3" target="PwfOH68YG07IcWF_8wBd-4">
          <mxGeometry width="50" height="50" relative="1" as="geometry">
            <mxPoint x="590" y="195" as="sourcePoint" />
            <mxPoint x="600" y="145" as="targetPoint" />
          </mxGeometry>
        </mxCell>
        <mxCell id="PwfOH68YG07IcWF_8wBd-4" value="&lt;font style=&quot;font-size: 20px&quot;&gt;&lt;b&gt;HTML&lt;/b&gt;&lt;/font&gt;" style="rounded=1;whiteSpace=wrap;html=1;glass=0;sketch=1;fontFamily=Cabin Sketch;fontSource=https%3A%2F%2Ffonts.googleapis.com%2Fcss%3Ffamily%3DCabin%2BSketch;fontSize=20;fillColor=#F2CC8F;strokeColor=#E07A5F;rotation=15;fontColor=#393C56;" vertex="1" parent="1">
          <mxGeometry x="615" y="70" width="70" height="40" as="geometry" />
        </mxCell>
        <mxCell id="PwfOH68YG07IcWF_8wBd-5" value="&lt;font style=&quot;font-size: 20px&quot;&gt;&lt;b&gt;CSS&lt;/b&gt;&lt;/font&gt;" style="rounded=1;whiteSpace=wrap;html=1;sketch=1;fontFamily=Cabin Sketch;fontSource=https%3A%2F%2Ffonts.googleapis.com%2Fcss%3Ffamily%3DCabin%2BSketch;fontSize=20;fillColor=#F2CC8F;strokeColor=#E07A5F;rotation=-15;fontColor=#393C56;" vertex="1" parent="1">
          <mxGeometry x="750" y="145" width="90" height="40" as="geometry" />
        </mxCell>
        <mxCell id="PwfOH68YG07IcWF_8wBd-6" value="" style="endArrow=classic;html=1;exitX=0.972;exitY=0.299;exitDx=0;exitDy=0;exitPerimeter=0;entryX=0;entryY=0.5;entryDx=0;entryDy=0;sketch=1;shadow=0;strokeColor=#E07A5F;fontColor=#393C56;labelBackgroundColor=#F4F1DE;" edge="1" parent="1" source="2c924340bb9dbf6c-3" target="PwfOH68YG07IcWF_8wBd-5">
          <mxGeometry width="50" height="50" relative="1" as="geometry">
            <mxPoint x="600" y="205" as="sourcePoint" />
            <mxPoint x="645.2941176470588" y="135" as="targetPoint" />
          </mxGeometry>
        </mxCell>
        <mxCell id="PwfOH68YG07IcWF_8wBd-7" value="&lt;b&gt;JavaScript&lt;/b&gt;" style="rounded=1;whiteSpace=wrap;html=1;sketch=1;fontSize=20;fontFamily=Cabin Sketch;fontSource=https%3A%2F%2Ffonts.googleapis.com%2Fcss%3Ffamily%3DCabin%2BSketch;fillColor=#F2CC8F;strokeColor=#E07A5F;rotation=0;fontColor=#393C56;" vertex="1" parent="1">
          <mxGeometry x="710" y="305" width="110" height="40" as="geometry" />
        </mxCell>
        <mxCell id="PwfOH68YG07IcWF_8wBd-8" value="" style="endArrow=classic;html=1;entryX=0;entryY=0;entryDx=0;entryDy=0;sketch=1;shadow=0;strokeColor=#E07A5F;fontColor=#393C56;labelBackgroundColor=#F4F1DE;" edge="1" parent="1" source="2c924340bb9dbf6c-3" target="PwfOH68YG07IcWF_8wBd-7">
          <mxGeometry width="50" height="50" relative="1" as="geometry">
            <mxPoint x="640" y="285" as="sourcePoint" />
            <mxPoint x="690" y="235" as="targetPoint" />
          </mxGeometry>
        </mxCell>
        <mxCell id="PwfOH68YG07IcWF_8wBd-9" value="" style="endArrow=classic;html=1;entryX=0.003;entryY=0.678;entryDx=0;entryDy=0;entryPerimeter=0;sketch=1;exitX=1;exitY=0.5;exitDx=0;exitDy=0;strokeColor=#E07A5F;fontColor=#393C56;labelBackgroundColor=#F4F1DE;" edge="1" parent="1" source="PwfOH68YG07IcWF_8wBd-5" target="PwfOH68YG07IcWF_8wBd-11">
          <mxGeometry width="50" height="50" relative="1" as="geometry">
            <mxPoint x="840" y="165" as="sourcePoint" />
            <mxPoint x="900" y="174.41" as="targetPoint" />
          </mxGeometry>
        </mxCell>
        <mxCell id="PwfOH68YG07IcWF_8wBd-11" value="Bootstrap" style="ellipse;whiteSpace=wrap;html=1;aspect=fixed;sketch=1;fontFamily=Cabin Sketch;fontSource=https%3A%2F%2Ffonts.googleapis.com%2Fcss%3Ffamily%3DCabin%2BSketch;fontSize=15;fillColor=#F2CC8F;strokeColor=#E07A5F;fontColor=#393C56;" vertex="1" parent="1">
          <mxGeometry x="920" y="70" width="75" height="75" as="geometry" />
        </mxCell>
        <mxCell id="PwfOH68YG07IcWF_8wBd-13" value="" style="endArrow=classic;html=1;entryX=0;entryY=1;entryDx=0;entryDy=0;sketch=1;exitX=0.75;exitY=0;exitDx=0;exitDy=0;strokeColor=#E07A5F;fontColor=#393C56;labelBackgroundColor=#F4F1DE;" edge="1" parent="1" source="PwfOH68YG07IcWF_8wBd-7" target="PwfOH68YG07IcWF_8wBd-14">
          <mxGeometry width="50" height="50" relative="1" as="geometry">
            <mxPoint x="830" y="310" as="sourcePoint" />
            <mxPoint x="880" y="265" as="targetPoint" />
          </mxGeometry>
        </mxCell>
        <mxCell id="PwfOH68YG07IcWF_8wBd-14" value="jQuery" style="ellipse;whiteSpace=wrap;html=1;aspect=fixed;sketch=1;fontSize=15;fontFamily=Cabin Sketch;fontSource=https%3A%2F%2Ffonts.googleapis.com%2Fcss%3Ffamily%3DCabin%2BSketch;fillColor=#F2CC8F;strokeColor=#E07A5F;fontColor=#393C56;" vertex="1" parent="1">
          <mxGeometry x="850" y="215" width="50" height="50" as="geometry" />
        </mxCell>
        <mxCell id="PwfOH68YG07IcWF_8wBd-15" value="" style="endArrow=classic;html=1;entryX=0.017;entryY=0.633;entryDx=0;entryDy=0;entryPerimeter=0;exitX=1;exitY=0.25;exitDx=0;exitDy=0;sketch=1;strokeColor=#E07A5F;fontColor=#393C56;labelBackgroundColor=#F4F1DE;" edge="1" parent="1" source="PwfOH68YG07IcWF_8wBd-7" target="PwfOH68YG07IcWF_8wBd-16">
          <mxGeometry width="50" height="50" relative="1" as="geometry">
            <mxPoint x="840" y="325" as="sourcePoint" />
            <mxPoint x="900" y="335" as="targetPoint" />
          </mxGeometry>
        </mxCell>
        <mxCell id="PwfOH68YG07IcWF_8wBd-16" value="ReactJs" style="ellipse;whiteSpace=wrap;html=1;aspect=fixed;sketch=1;fontSize=15;fontFamily=Cabin Sketch;fontSource=https%3A%2F%2Ffonts.googleapis.com%2Fcss%3Ffamily%3DCabin%2BSketch;fillColor=#F2CC8F;strokeColor=#E07A5F;fontColor=#393C56;" vertex="1" parent="1">
          <mxGeometry x="940" y="245" width="60" height="60" as="geometry" />
        </mxCell>
        <mxCell id="PwfOH68YG07IcWF_8wBd-18" value="" style="endArrow=classic;html=1;entryX=0.126;entryY=1.056;entryDx=0;entryDy=0;entryPerimeter=0;dashed=1;exitX=0.83;exitY=0.079;exitDx=0;exitDy=0;exitPerimeter=0;sketch=1;shadow=0;strokeColor=#E07A5F;fontColor=#393C56;labelBackgroundColor=#F4F1DE;" edge="1" parent="1" source="2c924340bb9dbf6c-5" target="PwfOH68YG07IcWF_8wBd-7">
          <mxGeometry width="50" height="50" relative="1" as="geometry">
            <mxPoint x="690" y="415" as="sourcePoint" />
            <mxPoint x="760" y="330" as="targetPoint" />
          </mxGeometry>
        </mxCell>
        <mxCell id="PwfOH68YG07IcWF_8wBd-19" value="" style="endArrow=classic;html=1;dashed=1;sketch=1;exitX=0.626;exitY=1.083;exitDx=0;exitDy=0;exitPerimeter=0;strokeColor=#E07A5F;fontColor=#393C56;labelBackgroundColor=#F4F1DE;" edge="1" parent="1" source="PwfOH68YG07IcWF_8wBd-7" target="PwfOH68YG07IcWF_8wBd-20">
          <mxGeometry width="50" height="50" relative="1" as="geometry">
            <mxPoint x="790" y="345" as="sourcePoint" />
            <mxPoint x="810" y="475" as="targetPoint" />
          </mxGeometry>
        </mxCell>
        <mxCell id="PwfOH68YG07IcWF_8wBd-20" value="&lt;font color=&quot;#333333&quot; face=&quot;Cabin Sketch&quot; data-font-src=&quot;https://fonts.googleapis.com/css?family=Cabin+Sketch&quot; style=&quot;font-size: 20px&quot;&gt;&lt;b&gt;NodeJs&lt;/b&gt;&lt;/font&gt;" style="ellipse;whiteSpace=wrap;html=1;aspect=fixed;sketch=1;fontColor=#393C56;fillColor=#F2CC8F;strokeColor=#E07A5F;" vertex="1" parent="1">
          <mxGeometry x="840" y="445" width="70" height="70" as="geometry" />
        </mxCell>
        <mxCell id="PwfOH68YG07IcWF_8wBd-21" value="ExpressJS" style="rhombus;whiteSpace=wrap;html=1;shadow=0;sketch=1;fontFamily=Cabin Sketch;fontSource=https%3A%2F%2Ffonts.googleapis.com%2Fcss%3Ffamily%3DCabin%2BSketch;fontSize=12;fillColor=#F2CC8F;strokeColor=#E07A5F;fontColor=#393C56;" vertex="1" parent="1">
          <mxGeometry x="960" y="462.5" width="90" height="35" as="geometry" />
        </mxCell>
        <mxCell id="PwfOH68YG07IcWF_8wBd-22" value="" style="endArrow=classic;html=1;sketch=1;strokeColor=#E07A5F;fontColor=#393C56;labelBackgroundColor=#F4F1DE;" edge="1" parent="1">
          <mxGeometry width="50" height="50" relative="1" as="geometry">
            <mxPoint x="910" y="480.40999999999997" as="sourcePoint" />
            <mxPoint x="960" y="480" as="targetPoint" />
          </mxGeometry>
        </mxCell>
        <mxCell id="PwfOH68YG07IcWF_8wBd-23" value="" style="endArrow=classic;html=1;entryX=0;entryY=0.5;entryDx=0;entryDy=0;exitX=1;exitY=0.5;exitDx=0;exitDy=0;sketch=1;shadow=0;strokeColor=#E07A5F;fontColor=#393C56;labelBackgroundColor=#F4F1DE;" edge="1" parent="1" source="2c924340bb9dbf6c-5" target="PwfOH68YG07IcWF_8wBd-20">
          <mxGeometry width="50" height="50" relative="1" as="geometry">
            <mxPoint x="690" y="455" as="sourcePoint" />
            <mxPoint x="740" y="405" as="targetPoint" />
          </mxGeometry>
        </mxCell>
        <mxCell id="PwfOH68YG07IcWF_8wBd-24" value="&lt;b&gt;API&lt;/b&gt;" style="rounded=1;whiteSpace=wrap;html=1;sketch=1;fontSize=20;fontFamily=Cabin Sketch;fontSource=https%3A%2F%2Ffonts.googleapis.com%2Fcss%3Ffamily%3DCabin%2BSketch;fillColor=#F2CC8F;strokeColor=#E07A5F;fontColor=#393C56;" vertex="1" parent="1">
          <mxGeometry x="640" y="585" width="100" height="40" as="geometry" />
        </mxCell>
        <mxCell id="PwfOH68YG07IcWF_8wBd-25" value="" style="endArrow=classic;html=1;exitX=0.679;exitY=0.991;exitDx=0;exitDy=0;exitPerimeter=0;sketch=1;shadow=0;strokeColor=#E07A5F;fontColor=#393C56;labelBackgroundColor=#F4F1DE;" edge="1" parent="1" source="2c924340bb9dbf6c-5" target="PwfOH68YG07IcWF_8wBd-24">
          <mxGeometry width="50" height="50" relative="1" as="geometry">
            <mxPoint x="650" y="615" as="sourcePoint" />
            <mxPoint x="700" y="565" as="targetPoint" />
          </mxGeometry>
        </mxCell>
        <mxCell id="PwfOH68YG07IcWF_8wBd-27" value="&lt;b&gt;Git&lt;/b&gt;" style="rounded=1;whiteSpace=wrap;html=1;sketch=1;fontSize=20;fontFamily=Cabin Sketch;fontSource=https%3A%2F%2Ffonts.googleapis.com%2Fcss%3Ffamily%3DCabin%2BSketch;fillColor=#F2CC8F;strokeColor=#E07A5F;fontColor=#393C56;" vertex="1" parent="1">
          <mxGeometry x="490" y="585" width="100" height="40" as="geometry" />
        </mxCell>
        <mxCell id="PwfOH68YG07IcWF_8wBd-30" value="" style="endArrow=classic;html=1;entryX=0.75;entryY=0;entryDx=0;entryDy=0;exitX=0;exitY=1;exitDx=0;exitDy=0;sketch=1;shadow=0;strokeColor=#E07A5F;fontColor=#393C56;labelBackgroundColor=#F4F1DE;" edge="1" parent="1" source="2c924340bb9dbf6c-5" target="PwfOH68YG07IcWF_8wBd-27">
          <mxGeometry width="50" height="50" relative="1" as="geometry">
            <mxPoint x="590" y="555" as="sourcePoint" />
            <mxPoint x="640" y="505" as="targetPoint" />
          </mxGeometry>
        </mxCell>
        <mxCell id="PwfOH68YG07IcWF_8wBd-32" value="&lt;b&gt;SQL&lt;/b&gt;" style="rounded=1;whiteSpace=wrap;html=1;sketch=1;fontSize=20;fontFamily=Cabin Sketch;fontSource=https%3A%2F%2Ffonts.googleapis.com%2Fcss%3Ffamily%3DCabin%2BSketch;fillColor=#F2CC8F;strokeColor=#E07A5F;fontColor=#393C56;" vertex="1" parent="1">
          <mxGeometry x="310" y="585" width="100" height="40" as="geometry" />
        </mxCell>
        <mxCell id="PwfOH68YG07IcWF_8wBd-33" value="" style="endArrow=classic;html=1;exitX=1;exitY=1;exitDx=0;exitDy=0;entryX=0.5;entryY=0;entryDx=0;entryDy=0;sketch=1;shadow=0;strokeColor=#E07A5F;fontColor=#393C56;labelBackgroundColor=#F4F1DE;" edge="1" parent="1" source="PwfOH68YG07IcWF_8wBd-2" target="PwfOH68YG07IcWF_8wBd-32">
          <mxGeometry width="50" height="50" relative="1" as="geometry">
            <mxPoint x="350" y="515" as="sourcePoint" />
            <mxPoint x="360" y="505" as="targetPoint" />
          </mxGeometry>
        </mxCell>
        <mxCell id="PwfOH68YG07IcWF_8wBd-35" value="&lt;b&gt;MongoDB&lt;/b&gt;" style="rounded=1;whiteSpace=wrap;html=1;sketch=1;fontSize=20;fontFamily=Cabin Sketch;fontSource=https%3A%2F%2Ffonts.googleapis.com%2Fcss%3Ffamily%3DCabin%2BSketch;fillColor=#F2CC8F;strokeColor=#E07A5F;fontColor=#393C56;" vertex="1" parent="1">
          <mxGeometry x="130" y="585" width="100" height="40" as="geometry" />
        </mxCell>
        <mxCell id="PwfOH68YG07IcWF_8wBd-36" value="" style="endArrow=classic;html=1;exitX=0.5;exitY=1;exitDx=0;exitDy=0;entryX=0.609;entryY=-0.032;entryDx=0;entryDy=0;entryPerimeter=0;sketch=1;shadow=0;strokeColor=#E07A5F;fontColor=#393C56;labelBackgroundColor=#F4F1DE;" edge="1" parent="1" source="PwfOH68YG07IcWF_8wBd-2" target="PwfOH68YG07IcWF_8wBd-35">
          <mxGeometry width="50" height="50" relative="1" as="geometry">
            <mxPoint x="250" y="615" as="sourcePoint" />
            <mxPoint x="300" y="565" as="targetPoint" />
          </mxGeometry>
        </mxCell>
        <mxCell id="PwfOH68YG07IcWF_8wBd-37" value="Mongoose" style="ellipse;whiteSpace=wrap;html=1;aspect=fixed;sketch=1;fillColor=#F2CC8F;strokeColor=#E07A5F;fontSize=15;fontFamily=Cabin Sketch;fontSource=https%3A%2F%2Ffonts.googleapis.com%2Fcss%3Ffamily%3DCabin%2BSketch;fontColor=#393C56;" vertex="1" parent="1">
          <mxGeometry x="120" y="690" width="70" height="70" as="geometry" />
        </mxCell>
        <mxCell id="PwfOH68YG07IcWF_8wBd-38" value="" style="endArrow=classic;html=1;entryX=0.5;entryY=0;entryDx=0;entryDy=0;sketch=1;exitX=0.5;exitY=1;exitDx=0;exitDy=0;strokeColor=#E07A5F;fontColor=#393C56;labelBackgroundColor=#F4F1DE;" edge="1" parent="1" source="PwfOH68YG07IcWF_8wBd-35" target="PwfOH68YG07IcWF_8wBd-37">
          <mxGeometry width="50" height="50" relative="1" as="geometry">
            <mxPoint x="200" y="627" as="sourcePoint" />
            <mxPoint x="270" y="595" as="targetPoint" />
          </mxGeometry>
        </mxCell>
        <mxCell id="PwfOH68YG07IcWF_8wBd-39" value="" style="endArrow=classic;html=1;sketch=1;shadow=0;strokeColor=#E07A5F;fontColor=#393C56;labelBackgroundColor=#F4F1DE;" edge="1" parent="1" source="2c924340bb9dbf6c-5">
          <mxGeometry width="50" height="50" relative="1" as="geometry">
            <mxPoint x="780" y="560" as="sourcePoint" />
            <mxPoint x="840" y="620" as="targetPoint" />
          </mxGeometry>
        </mxCell>
        <mxCell id="PwfOH68YG07IcWF_8wBd-40" value="&lt;b&gt;Python&lt;/b&gt;" style="rounded=1;whiteSpace=wrap;html=1;rotation=-30;fontSize=20;sketch=1;fontFamily=Cabin Sketch;fontSource=https%3A%2F%2Ffonts.googleapis.com%2Fcss%3Ffamily%3DCabin%2BSketch;fillColor=#F2CC8F;strokeColor=#E07A5F;fontColor=#393C56;" vertex="1" parent="1">
          <mxGeometry x="810" y="615" width="100" height="40" as="geometry" />
        </mxCell>
        <mxCell id="PwfOH68YG07IcWF_8wBd-41" value="RESTful API" style="ellipse;whiteSpace=wrap;html=1;aspect=fixed;sketch=1;fillColor=#F2CC8F;strokeColor=#E07A5F;fontSize=15;fontFamily=Cabin Sketch;fontSource=https%3A%2F%2Ffonts.googleapis.com%2Fcss%3Ffamily%3DCabin%2BSketch;fontColor=#393C56;" vertex="1" parent="1">
          <mxGeometry x="660" y="685" width="60" height="60" as="geometry" />
        </mxCell>
        <mxCell id="PwfOH68YG07IcWF_8wBd-42" value="" style="endArrow=classic;html=1;entryX=0.5;entryY=0;entryDx=0;entryDy=0;strokeColor=#E07A5F;fontColor=#393C56;labelBackgroundColor=#F4F1DE;" edge="1" parent="1" target="PwfOH68YG07IcWF_8wBd-41">
          <mxGeometry width="50" height="50" relative="1" as="geometry">
            <mxPoint x="690" y="625" as="sourcePoint" />
            <mxPoint x="680" y="693" as="targetPoint" />
          </mxGeometry>
        </mxCell>
        <mxCell id="PwfOH68YG07IcWF_8wBd-43" value="" style="shape=flexArrow;endArrow=classic;html=1;fontSize=20;entryX=0;entryY=1;entryDx=0;entryDy=0;sketch=1;shadow=1;strokeColor=#E07A5F;fontColor=#393C56;labelBackgroundColor=#F4F1DE;" edge="1" parent="1" target="2c924340bb9dbf6c-3">
          <mxGeometry width="50" height="50" relative="1" as="geometry">
            <mxPoint x="510" y="310" as="sourcePoint" />
            <mxPoint x="550" y="265" as="targetPoint" />
          </mxGeometry>
        </mxCell>
        <mxCell id="PwfOH68YG07IcWF_8wBd-45" value="" style="shape=flexArrow;endArrow=classic;html=1;fontSize=20;entryX=1;entryY=1;entryDx=0;entryDy=0;exitX=0.101;exitY=0.164;exitDx=0;exitDy=0;exitPerimeter=0;sketch=1;shadow=1;strokeColor=#E07A5F;fontColor=#393C56;labelBackgroundColor=#F4F1DE;" edge="1" parent="1" source="2c924340bb9dbf6c-4" target="2c924340bb9dbf6c-2">
          <mxGeometry width="50" height="50" relative="1" as="geometry">
            <mxPoint x="370" y="315" as="sourcePoint" />
            <mxPoint x="420" y="265" as="targetPoint" />
          </mxGeometry>
        </mxCell>
        <mxCell id="PwfOH68YG07IcWF_8wBd-46" value="" style="shape=flexArrow;endArrow=classic;html=1;shadow=1;fontSize=20;sketch=1;exitX=0.046;exitY=0.771;exitDx=0;exitDy=0;exitPerimeter=0;strokeColor=#E07A5F;fontColor=#393C56;labelBackgroundColor=#F4F1DE;" edge="1" parent="1" source="2c924340bb9dbf6c-4" target="PwfOH68YG07IcWF_8wBd-2">
          <mxGeometry width="50" height="50" relative="1" as="geometry">
            <mxPoint x="350" y="440" as="sourcePoint" />
            <mxPoint x="400" y="390" as="targetPoint" />
          </mxGeometry>
        </mxCell>
        <mxCell id="PwfOH68YG07IcWF_8wBd-47" value="" style="shape=flexArrow;endArrow=classic;html=1;shadow=1;fontSize=20;entryX=0;entryY=0;entryDx=0;entryDy=0;exitX=0.992;exitY=0.7;exitDx=0;exitDy=0;exitPerimeter=0;sketch=1;strokeColor=#E07A5F;fontColor=#393C56;labelBackgroundColor=#F4F1DE;" edge="1" parent="1" source="2c924340bb9dbf6c-4" target="2c924340bb9dbf6c-5">
          <mxGeometry width="50" height="50" relative="1" as="geometry">
            <mxPoint x="500" y="390" as="sourcePoint" />
            <mxPoint x="550" y="340" as="targetPoint" />
          </mxGeometry>
        </mxCell>
        <mxCell id="PwfOH68YG07IcWF_8wBd-48" value="Angular" style="ellipse;whiteSpace=wrap;html=1;aspect=fixed;sketch=1;fontSize=15;fontFamily=Cabin Sketch;fontSource=https%3A%2F%2Ffonts.googleapis.com%2Fcss%3Ffamily%3DCabin%2BSketch;fillColor=#F2CC8F;strokeColor=#E07A5F;fontColor=#393C56;" vertex="1" parent="1">
          <mxGeometry x="970" y="340" width="60" height="60" as="geometry" />
        </mxCell>
        <mxCell id="PwfOH68YG07IcWF_8wBd-49" value="" style="endArrow=classic;html=1;entryX=0;entryY=0.5;entryDx=0;entryDy=0;exitX=1;exitY=0.75;exitDx=0;exitDy=0;sketch=1;strokeColor=#E07A5F;fontColor=#393C56;labelBackgroundColor=#F4F1DE;" edge="1" parent="1" source="PwfOH68YG07IcWF_8wBd-7" target="PwfOH68YG07IcWF_8wBd-48">
          <mxGeometry width="50" height="50" relative="1" as="geometry">
            <mxPoint x="850" y="362.02" as="sourcePoint" />
            <mxPoint x="951.02" y="330" as="targetPoint" />
          </mxGeometry>
        </mxCell>
      </root>
    </mxGraphModel>
  </diagram>
</mxfile>
